G75*
G70*
%OFA0B0*%
%FSLAX24Y24*%
%IPPOS*%
%LPD*%
%AMOC8*
5,1,8,0,0,1.08239X$1,22.5*
%
%ADD10C,0.3230*%
%ADD11C,0.1340*%
%ADD12R,0.0171X0.0710*%
%ADD13OC8,0.0680*%
%ADD14R,0.0297X0.0552*%
%ADD15R,0.0867X0.0671*%
%ADD16R,0.0671X0.0848*%
%ADD17R,0.0552X0.0297*%
%ADD18R,0.0671X0.0867*%
%ADD19R,0.0848X0.0671*%
%ADD20R,0.0671X0.0671*%
%ADD21R,0.0867X0.0710*%
%ADD22OC8,0.0476*%
D10*
X010416Y014238D03*
D11*
X004784Y001760D03*
X016784Y001760D03*
X016784Y018760D03*
X004784Y018760D03*
D12*
X009534Y009325D03*
X009691Y009325D03*
X009849Y009325D03*
X010006Y009325D03*
X010164Y009325D03*
X010321Y009325D03*
X010479Y009325D03*
X010636Y009325D03*
X010794Y009325D03*
X010951Y009325D03*
X011109Y009325D03*
X011266Y009325D03*
X011266Y007435D03*
X011109Y007435D03*
X010951Y007435D03*
X010794Y007435D03*
X010636Y007435D03*
X010479Y007435D03*
X010321Y007435D03*
X010164Y007435D03*
X010006Y007435D03*
X009849Y007435D03*
X009691Y007435D03*
X009534Y007435D03*
D13*
X009784Y003510D03*
X009784Y002510D03*
X010784Y002510D03*
X010784Y003510D03*
X011784Y003510D03*
X011784Y002510D03*
X012784Y002510D03*
X012784Y003510D03*
X013784Y003510D03*
X013784Y002510D03*
X014784Y002510D03*
X014784Y003510D03*
X008784Y003510D03*
X008784Y002510D03*
X007784Y002510D03*
X007784Y003510D03*
X006784Y003510D03*
X006784Y002510D03*
X005784Y002510D03*
X005784Y003510D03*
D14*
X005658Y013998D03*
X004910Y013998D03*
X004910Y015022D03*
X005284Y015022D03*
X005658Y015022D03*
D15*
X007034Y015169D03*
X007034Y016350D03*
X007034Y013850D03*
X007034Y012669D03*
X005034Y012100D03*
X005034Y010919D03*
X012784Y017169D03*
X012784Y018350D03*
X015284Y018350D03*
X015284Y017169D03*
X016284Y012100D03*
X016284Y010919D03*
X013034Y008850D03*
X013034Y007669D03*
D16*
X008034Y012718D03*
X008034Y013801D03*
X008034Y015218D03*
X008034Y016301D03*
X013784Y017218D03*
X013784Y018301D03*
X016534Y017551D03*
X016534Y016468D03*
D17*
X015046Y013134D03*
X015046Y012386D03*
X014022Y012386D03*
X014022Y012760D03*
X014022Y013134D03*
X011046Y016886D03*
X011046Y017260D03*
X011046Y017634D03*
X010022Y017634D03*
X010022Y016886D03*
D18*
X008624Y017760D03*
X007443Y017760D03*
X012693Y014510D03*
X013874Y014510D03*
X015193Y014510D03*
X016374Y014510D03*
X007874Y008760D03*
X006693Y008760D03*
X006693Y007260D03*
X007874Y007260D03*
D19*
X012742Y015510D03*
X013825Y015510D03*
X015242Y015510D03*
X016325Y015510D03*
D20*
X016284Y007449D03*
X016284Y006071D03*
D21*
X016284Y005061D03*
X016284Y003959D03*
D22*
X013034Y007260D03*
X012784Y006510D03*
X014784Y010260D03*
X014034Y011010D03*
X013284Y011260D03*
X012284Y011510D03*
X011284Y010510D03*
X010034Y011260D03*
X008534Y009510D03*
X008284Y008760D03*
X006784Y011010D03*
X007534Y011260D03*
X008284Y011510D03*
X005784Y009510D03*
X005034Y010510D03*
X006534Y014510D03*
X006784Y017760D03*
X009534Y016510D03*
X012034Y018260D03*
X013284Y017010D03*
X016534Y013510D03*
X016284Y010260D03*
X016284Y008260D03*
X005534Y006260D03*
M02*
