%
M48
M72
T01C0.3150
T02C0.1260
T03C0.0400
T04C0.0236
%
T01
X1042Y1424
T02
X478Y176
X1678Y176
X1678Y1876
X478Y1876
T03
X578Y351
X578Y251
X678Y251
X678Y351
X778Y351
X778Y251
X878Y251
X878Y351
X978Y351
X978Y251
X1078Y251
X1078Y351
X1178Y351
X1178Y251
X1278Y251
X1278Y351
X1378Y351
X1378Y251
X1478Y251
X1478Y351
T04
X1278Y651
X1303Y726
X1478Y1026
X1403Y1101
X1328Y1126
X1228Y1151
X1128Y1051
X1003Y1126
X853Y951
X828Y876
X678Y1101
X753Y1126
X828Y1151
X578Y951
X503Y1051
X653Y1451
X678Y1776
X953Y1651
X1203Y1826
X1328Y1701
X1653Y1351
X1628Y1026
X1628Y826
X553Y626
M30
