G75*
G70*
%OFA0B0*%
%FSLAX24Y24*%
%IPPOS*%
%LPD*%
%AMOC8*
5,1,8,0,0,1.08239X$1,22.5*
%
%ADD10C,0.0000*%
D10*
X003849Y000762D02*
X003849Y019758D01*
X017719Y019758D01*
X017719Y000762D01*
X003849Y000762D01*
X004154Y001760D02*
X004157Y001817D01*
X004164Y001874D01*
X004177Y001930D01*
X004195Y001984D01*
X004218Y002037D01*
X004246Y002087D01*
X004278Y002135D01*
X004314Y002179D01*
X004354Y002220D01*
X004398Y002258D01*
X004444Y002291D01*
X004494Y002319D01*
X004546Y002343D01*
X004600Y002363D01*
X004656Y002377D01*
X004712Y002386D01*
X004770Y002390D01*
X004827Y002389D01*
X004884Y002382D01*
X004940Y002370D01*
X004995Y002354D01*
X005048Y002332D01*
X005099Y002306D01*
X005147Y002275D01*
X005193Y002240D01*
X005235Y002200D01*
X005273Y002158D01*
X005307Y002111D01*
X005337Y002062D01*
X005362Y002011D01*
X005382Y001957D01*
X005398Y001902D01*
X005408Y001846D01*
X005413Y001789D01*
X005413Y001731D01*
X005408Y001674D01*
X005398Y001618D01*
X005382Y001563D01*
X005362Y001509D01*
X005337Y001458D01*
X005307Y001409D01*
X005273Y001362D01*
X005235Y001320D01*
X005193Y001280D01*
X005147Y001245D01*
X005099Y001214D01*
X005048Y001188D01*
X004995Y001166D01*
X004940Y001150D01*
X004884Y001138D01*
X004827Y001131D01*
X004770Y001130D01*
X004712Y001134D01*
X004656Y001143D01*
X004600Y001157D01*
X004546Y001177D01*
X004494Y001201D01*
X004444Y001229D01*
X004398Y001262D01*
X004354Y001300D01*
X004314Y001341D01*
X004278Y001385D01*
X004246Y001433D01*
X004218Y001483D01*
X004195Y001536D01*
X004177Y001590D01*
X004164Y001646D01*
X004157Y001703D01*
X004154Y001760D01*
X008841Y014238D02*
X008848Y014381D01*
X008867Y014523D01*
X008899Y014663D01*
X008944Y014799D01*
X009001Y014931D01*
X009070Y015056D01*
X009150Y015175D01*
X009241Y015287D01*
X009341Y015389D01*
X009450Y015482D01*
X009567Y015565D01*
X009691Y015636D01*
X009822Y015697D01*
X009957Y015745D01*
X010096Y015780D01*
X010237Y015803D01*
X010380Y015813D01*
X010523Y015809D01*
X010666Y015793D01*
X010806Y015764D01*
X010943Y015722D01*
X011076Y015668D01*
X011203Y015602D01*
X011324Y015525D01*
X011438Y015437D01*
X011542Y015339D01*
X011638Y015232D01*
X011723Y015117D01*
X011798Y014994D01*
X011861Y014865D01*
X011912Y014732D01*
X011950Y014593D01*
X011976Y014452D01*
X011989Y014310D01*
X011989Y014166D01*
X011976Y014024D01*
X011950Y013883D01*
X011912Y013744D01*
X011861Y013611D01*
X011798Y013482D01*
X011723Y013359D01*
X011638Y013244D01*
X011542Y013137D01*
X011438Y013039D01*
X011324Y012951D01*
X011204Y012874D01*
X011076Y012808D01*
X010943Y012754D01*
X010806Y012712D01*
X010666Y012683D01*
X010523Y012667D01*
X010380Y012663D01*
X010237Y012673D01*
X010096Y012696D01*
X009957Y012731D01*
X009822Y012779D01*
X009691Y012840D01*
X009567Y012911D01*
X009450Y012994D01*
X009341Y013087D01*
X009241Y013189D01*
X009150Y013301D01*
X009070Y013420D01*
X009001Y013545D01*
X008944Y013677D01*
X008899Y013813D01*
X008867Y013953D01*
X008848Y014095D01*
X008841Y014238D01*
X004154Y018760D02*
X004157Y018817D01*
X004164Y018874D01*
X004177Y018930D01*
X004195Y018984D01*
X004218Y019037D01*
X004246Y019087D01*
X004278Y019135D01*
X004314Y019179D01*
X004354Y019220D01*
X004398Y019258D01*
X004444Y019291D01*
X004494Y019319D01*
X004546Y019343D01*
X004600Y019363D01*
X004656Y019377D01*
X004712Y019386D01*
X004770Y019390D01*
X004827Y019389D01*
X004884Y019382D01*
X004940Y019370D01*
X004995Y019354D01*
X005048Y019332D01*
X005099Y019306D01*
X005147Y019275D01*
X005193Y019240D01*
X005235Y019200D01*
X005273Y019158D01*
X005307Y019111D01*
X005337Y019062D01*
X005362Y019011D01*
X005382Y018957D01*
X005398Y018902D01*
X005408Y018846D01*
X005413Y018789D01*
X005413Y018731D01*
X005408Y018674D01*
X005398Y018618D01*
X005382Y018563D01*
X005362Y018509D01*
X005337Y018458D01*
X005307Y018409D01*
X005273Y018362D01*
X005235Y018320D01*
X005193Y018280D01*
X005147Y018245D01*
X005099Y018214D01*
X005048Y018188D01*
X004995Y018166D01*
X004940Y018150D01*
X004884Y018138D01*
X004827Y018131D01*
X004770Y018130D01*
X004712Y018134D01*
X004656Y018143D01*
X004600Y018157D01*
X004546Y018177D01*
X004494Y018201D01*
X004444Y018229D01*
X004398Y018262D01*
X004354Y018300D01*
X004314Y018341D01*
X004278Y018385D01*
X004246Y018433D01*
X004218Y018483D01*
X004195Y018536D01*
X004177Y018590D01*
X004164Y018646D01*
X004157Y018703D01*
X004154Y018760D01*
X016154Y018760D02*
X016157Y018817D01*
X016164Y018874D01*
X016177Y018930D01*
X016195Y018984D01*
X016218Y019037D01*
X016246Y019087D01*
X016278Y019135D01*
X016314Y019179D01*
X016354Y019220D01*
X016398Y019258D01*
X016444Y019291D01*
X016494Y019319D01*
X016546Y019343D01*
X016600Y019363D01*
X016656Y019377D01*
X016712Y019386D01*
X016770Y019390D01*
X016827Y019389D01*
X016884Y019382D01*
X016940Y019370D01*
X016995Y019354D01*
X017048Y019332D01*
X017099Y019306D01*
X017147Y019275D01*
X017193Y019240D01*
X017235Y019200D01*
X017273Y019158D01*
X017307Y019111D01*
X017337Y019062D01*
X017362Y019011D01*
X017382Y018957D01*
X017398Y018902D01*
X017408Y018846D01*
X017413Y018789D01*
X017413Y018731D01*
X017408Y018674D01*
X017398Y018618D01*
X017382Y018563D01*
X017362Y018509D01*
X017337Y018458D01*
X017307Y018409D01*
X017273Y018362D01*
X017235Y018320D01*
X017193Y018280D01*
X017147Y018245D01*
X017099Y018214D01*
X017048Y018188D01*
X016995Y018166D01*
X016940Y018150D01*
X016884Y018138D01*
X016827Y018131D01*
X016770Y018130D01*
X016712Y018134D01*
X016656Y018143D01*
X016600Y018157D01*
X016546Y018177D01*
X016494Y018201D01*
X016444Y018229D01*
X016398Y018262D01*
X016354Y018300D01*
X016314Y018341D01*
X016278Y018385D01*
X016246Y018433D01*
X016218Y018483D01*
X016195Y018536D01*
X016177Y018590D01*
X016164Y018646D01*
X016157Y018703D01*
X016154Y018760D01*
X016154Y001760D02*
X016157Y001817D01*
X016164Y001874D01*
X016177Y001930D01*
X016195Y001984D01*
X016218Y002037D01*
X016246Y002087D01*
X016278Y002135D01*
X016314Y002179D01*
X016354Y002220D01*
X016398Y002258D01*
X016444Y002291D01*
X016494Y002319D01*
X016546Y002343D01*
X016600Y002363D01*
X016656Y002377D01*
X016712Y002386D01*
X016770Y002390D01*
X016827Y002389D01*
X016884Y002382D01*
X016940Y002370D01*
X016995Y002354D01*
X017048Y002332D01*
X017099Y002306D01*
X017147Y002275D01*
X017193Y002240D01*
X017235Y002200D01*
X017273Y002158D01*
X017307Y002111D01*
X017337Y002062D01*
X017362Y002011D01*
X017382Y001957D01*
X017398Y001902D01*
X017408Y001846D01*
X017413Y001789D01*
X017413Y001731D01*
X017408Y001674D01*
X017398Y001618D01*
X017382Y001563D01*
X017362Y001509D01*
X017337Y001458D01*
X017307Y001409D01*
X017273Y001362D01*
X017235Y001320D01*
X017193Y001280D01*
X017147Y001245D01*
X017099Y001214D01*
X017048Y001188D01*
X016995Y001166D01*
X016940Y001150D01*
X016884Y001138D01*
X016827Y001131D01*
X016770Y001130D01*
X016712Y001134D01*
X016656Y001143D01*
X016600Y001157D01*
X016546Y001177D01*
X016494Y001201D01*
X016444Y001229D01*
X016398Y001262D01*
X016354Y001300D01*
X016314Y001341D01*
X016278Y001385D01*
X016246Y001433D01*
X016218Y001483D01*
X016195Y001536D01*
X016177Y001590D01*
X016164Y001646D01*
X016157Y001703D01*
X016154Y001760D01*
M02*
