%
M48
M72
T01C0.1260
T02C0.0400
T03C0.0320
T04C0.0354
T05C0.1496
T06C0.0440
T07C0.0360
T08C0.0240
T09C0.0236
%
T01
X612Y256
X5162Y256
X5162Y3831
X637Y3831
T02
X887Y3631
X987Y3631
X987Y3531
X887Y3531
X887Y3431
X987Y3431
X987Y3331
X887Y3331
X887Y3231
X987Y3231
X987Y3131
X887Y3131
X887Y3031
X987Y3031
X987Y2931
X887Y2931
X1387Y2931
X1487Y2931
X1487Y2831
X1387Y2831
X1387Y2731
X1487Y2731
X1487Y3031
X1487Y3131
X1487Y3231
X1387Y3231
X1387Y3131
X1387Y3031
X1387Y3331
X1387Y3431
X1487Y3431
X1487Y3331
X1487Y3531
X1487Y3631
X1387Y3631
X1387Y3531
X1912Y3556
X2012Y3556
X2012Y3656
X1912Y3656
X1912Y3456
X2012Y3456
X2012Y3356
X1912Y3356
X1912Y3256
X2012Y3256
X2012Y3156
X1912Y3156
X1912Y3056
X2012Y3056
X2012Y2956
X1912Y2956
X1912Y2856
X2012Y2856
X2012Y2756
X1912Y2756
X1912Y2656
X2012Y2656
X2012Y2556
X1912Y2556
X1912Y2456
X2012Y2456
X2862Y2081
X2962Y2081
X3062Y2081
X3162Y2081
X3262Y2081
X3362Y2081
X3462Y2081
X3562Y2081
X3562Y1981
X3462Y1981
X3362Y1981
X3262Y1981
X3162Y1981
X3062Y1981
X2962Y1981
X2862Y1981
X2512Y1756
X2012Y1756
X1237Y1581
X1037Y1581
X1787Y581
X1887Y581
X1987Y581
X2087Y581
X2187Y581
X2187Y481
X2087Y481
X1987Y481
X1887Y481
X1787Y481
X1287Y531
X787Y531
X2962Y531
X3062Y531
X3162Y531
X3262Y531
X3262Y431
X3162Y431
X3062Y431
X2962Y431
X4237Y2131
X4337Y2131
X4337Y2231
X4337Y2331
X4237Y2331
X4237Y2231
X4237Y2431
X4337Y2431
X4737Y2656
X4837Y2656
X4937Y2656
X5037Y2656
X5137Y2656
X5137Y2756
X5037Y2756
X4937Y2756
X4837Y2756
X4737Y2756
X4712Y3406
X4712Y3506
X4812Y3506
X4912Y3506
X5012Y3506
X5112Y3506
X5112Y3406
X5012Y3406
X4912Y3406
X4812Y3406
X4612Y3406
X4612Y3506
X4512Y3506
X4412Y3506
X4312Y3506
X4212Y3506
X4212Y3406
X4312Y3406
X4412Y3406
X4512Y3406
X3615Y3395
X3615Y3217
X3359Y3217
X3112Y3256
X3012Y3256
X3012Y3156
X3112Y3156
X3112Y3056
X3012Y3056
X3012Y2956
X3112Y2956
X3112Y2856
X3012Y2856
X3012Y2756
X3112Y2756
X3112Y2656
X3012Y2656
X3012Y2556
X3112Y2556
X3112Y2456
X3012Y2456
X3012Y3356
X3012Y3456
X3112Y3456
X3112Y3356
X3359Y3395
X3112Y3556
X3112Y3656
X3012Y3656
X3012Y3556
T03
X1212Y2081
X1162Y2006
X1112Y2081
X1162Y1281
X1162Y1081
X1187Y881
X1187Y681
X2737Y981
X2737Y1081
X2737Y1181
X2737Y1281
X2737Y1381
X2737Y1481
X2737Y1581
X2737Y1681
X3037Y1681
X3037Y1581
X3037Y1481
X3037Y1381
X3037Y1281
X3037Y1181
X3037Y1081
X3037Y981
X3412Y981
X3412Y1081
X3412Y1181
X3412Y1281
X3412Y1381
X3412Y1481
X3412Y1581
X3412Y1681
X3712Y1681
X3712Y1581
X3712Y1481
X3712Y1381
X3712Y1281
X3712Y1181
X3712Y1081
X3712Y981
T04
X843Y1072
X739Y1139
X843Y1206
X739Y1273
X843Y1340
T05
X122Y1206
T06
X4762Y256
T07
X4762Y381
X4862Y381
X2687Y531
X2587Y531
X1837Y831
X1837Y931
X1762Y1306
X1662Y1306
X887Y756
X787Y756
X687Y756
X1462Y531
X1562Y531
X812Y1556
X712Y1556
X712Y2056
X812Y2056
X912Y2056
X1387Y2406
X1487Y2406
X1787Y1981
X1887Y1981
X3337Y2381
X3437Y2381
X3437Y2656
X3337Y2656
X3337Y3056
X3437Y3056
X3437Y3606
X3337Y3606
T08
X2912Y3706
X2512Y3731
X2462Y3731
X2387Y3756
X1837Y3806
X1837Y3656
X1487Y3856
X1387Y3806
X1337Y3781
X1612Y3381
X1737Y3381
X1687Y3281
X1787Y3256
X1712Y3231
X1787Y3156
X1687Y3056
X1812Y3006
X1687Y2881
X1612Y2931
X1637Y2781
X1512Y2631
X1337Y2681
X1212Y2781
X1162Y2881
X1162Y3031
X1162Y3231
X1537Y3081
X1837Y2756
X2362Y3131
X2262Y3281
X2562Y3056
X2662Y2931
X2562Y2856
X2537Y2756
X2662Y2706
X2512Y2581
X2812Y2931
X2062Y2231
X1962Y2231
X2262Y2031
X2362Y2131
X2762Y1956
X3512Y1906
T09
X3237Y1806
X3537Y1631
X3612Y1581
X3237Y1431
X3237Y1231
X2862Y1431
X2862Y1506
X2612Y1406
X2537Y1556
X2562Y1881
X2412Y1881
X2412Y2031
X2412Y2131
X2562Y2131
X2562Y2031
X2187Y1931
X2012Y1956
X2062Y2131
X1912Y2131
X1862Y2331
X1612Y2106
X1387Y2131
X1312Y2256
X1112Y2306
X1387Y2606
X1562Y2531
X1737Y2556
X2562Y2431
X3237Y2681
X3262Y2931
X3212Y3281
X3737Y3556
X3487Y3781
X3537Y3906
X3112Y3856
X4362Y3131
X3987Y2906
X4037Y2631
X4137Y2506
X4362Y2556
X4587Y2681
X4762Y2506
X4662Y2456
X4462Y2256
X4362Y2056
X4362Y1906
X4537Y1906
X4487Y1481
X4537Y1331
X4437Y1331
X4187Y1381
X4512Y1031
X4512Y831
X4737Y831
X4737Y1031
X4212Y531
X4162Y481
X3912Y681
X3812Y531
X3712Y781
X3287Y756
X3012Y831
X2862Y631
X2412Y1031
X2112Y881
X2012Y981
X1462Y706
X1012Y831
X537Y581
X1862Y1656
X1862Y1731
X787Y2731
X1212Y3631
X1212Y3781
X937Y3781
X1637Y3906
X3712Y2256
X5002Y2516
X4812Y3356
M30
