G75*
G70*
%OFA0B0*%
%FSLAX24Y24*%
%IPPOS*%
%LPD*%
%AMOC8*
5,1,8,0,0,1.08239X$1,22.5*
%
%ADD10C,0.0000*%
D10*
X004935Y001310D02*
X004935Y039556D01*
X053055Y039556D01*
X053055Y001310D01*
X004935Y001310D01*
X005490Y002558D02*
X005493Y002615D01*
X005500Y002672D01*
X005513Y002728D01*
X005531Y002782D01*
X005554Y002835D01*
X005582Y002885D01*
X005614Y002933D01*
X005650Y002977D01*
X005690Y003018D01*
X005734Y003056D01*
X005780Y003089D01*
X005830Y003117D01*
X005882Y003141D01*
X005936Y003161D01*
X005992Y003175D01*
X006048Y003184D01*
X006106Y003188D01*
X006163Y003187D01*
X006220Y003180D01*
X006276Y003168D01*
X006331Y003152D01*
X006384Y003130D01*
X006435Y003104D01*
X006483Y003073D01*
X006529Y003038D01*
X006571Y002998D01*
X006609Y002956D01*
X006643Y002909D01*
X006673Y002860D01*
X006698Y002809D01*
X006718Y002755D01*
X006734Y002700D01*
X006744Y002644D01*
X006749Y002587D01*
X006749Y002529D01*
X006744Y002472D01*
X006734Y002416D01*
X006718Y002361D01*
X006698Y002307D01*
X006673Y002256D01*
X006643Y002207D01*
X006609Y002160D01*
X006571Y002118D01*
X006529Y002078D01*
X006483Y002043D01*
X006435Y002012D01*
X006384Y001986D01*
X006331Y001964D01*
X006276Y001948D01*
X006220Y001936D01*
X006163Y001929D01*
X006106Y001928D01*
X006048Y001932D01*
X005992Y001941D01*
X005936Y001955D01*
X005882Y001975D01*
X005830Y001999D01*
X005780Y002027D01*
X005734Y002060D01*
X005690Y002098D01*
X005650Y002139D01*
X005614Y002183D01*
X005582Y002231D01*
X005554Y002281D01*
X005531Y002334D01*
X005513Y002388D01*
X005500Y002444D01*
X005493Y002501D01*
X005490Y002558D01*
X000474Y012058D02*
X000477Y012126D01*
X000486Y012193D01*
X000502Y012260D01*
X000523Y012324D01*
X000550Y012387D01*
X000583Y012447D01*
X000621Y012503D01*
X000664Y012556D01*
X000711Y012605D01*
X000763Y012649D01*
X000819Y012688D01*
X000878Y012722D01*
X000940Y012751D01*
X001004Y012773D01*
X001070Y012790D01*
X001137Y012801D01*
X001205Y012806D01*
X001273Y012804D01*
X001341Y012797D01*
X001407Y012783D01*
X001472Y012763D01*
X001536Y012737D01*
X001596Y012706D01*
X001653Y012669D01*
X001707Y012627D01*
X001757Y012581D01*
X001802Y012530D01*
X001843Y012475D01*
X001878Y012417D01*
X001908Y012356D01*
X001932Y012292D01*
X001951Y012227D01*
X001963Y012160D01*
X001969Y012092D01*
X001969Y012024D01*
X001963Y011956D01*
X001951Y011889D01*
X001932Y011824D01*
X001908Y011760D01*
X001878Y011699D01*
X001843Y011641D01*
X001802Y011586D01*
X001757Y011535D01*
X001707Y011489D01*
X001653Y011447D01*
X001596Y011410D01*
X001536Y011379D01*
X001472Y011353D01*
X001407Y011333D01*
X001341Y011319D01*
X001273Y011312D01*
X001205Y011310D01*
X001137Y011315D01*
X001070Y011326D01*
X001004Y011343D01*
X000940Y011365D01*
X000878Y011394D01*
X000819Y011428D01*
X000763Y011467D01*
X000711Y011511D01*
X000664Y011560D01*
X000621Y011613D01*
X000583Y011669D01*
X000550Y011729D01*
X000523Y011792D01*
X000502Y011856D01*
X000486Y011923D01*
X000477Y011990D01*
X000474Y012058D01*
X005740Y038308D02*
X005743Y038365D01*
X005750Y038422D01*
X005763Y038478D01*
X005781Y038532D01*
X005804Y038585D01*
X005832Y038635D01*
X005864Y038683D01*
X005900Y038727D01*
X005940Y038768D01*
X005984Y038806D01*
X006030Y038839D01*
X006080Y038867D01*
X006132Y038891D01*
X006186Y038911D01*
X006242Y038925D01*
X006298Y038934D01*
X006356Y038938D01*
X006413Y038937D01*
X006470Y038930D01*
X006526Y038918D01*
X006581Y038902D01*
X006634Y038880D01*
X006685Y038854D01*
X006733Y038823D01*
X006779Y038788D01*
X006821Y038748D01*
X006859Y038706D01*
X006893Y038659D01*
X006923Y038610D01*
X006948Y038559D01*
X006968Y038505D01*
X006984Y038450D01*
X006994Y038394D01*
X006999Y038337D01*
X006999Y038279D01*
X006994Y038222D01*
X006984Y038166D01*
X006968Y038111D01*
X006948Y038057D01*
X006923Y038006D01*
X006893Y037957D01*
X006859Y037910D01*
X006821Y037868D01*
X006779Y037828D01*
X006733Y037793D01*
X006685Y037762D01*
X006634Y037736D01*
X006581Y037714D01*
X006526Y037698D01*
X006470Y037686D01*
X006413Y037679D01*
X006356Y037678D01*
X006298Y037682D01*
X006242Y037691D01*
X006186Y037705D01*
X006132Y037725D01*
X006080Y037749D01*
X006030Y037777D01*
X005984Y037810D01*
X005940Y037848D01*
X005900Y037889D01*
X005864Y037933D01*
X005832Y037981D01*
X005804Y038031D01*
X005781Y038084D01*
X005763Y038138D01*
X005750Y038194D01*
X005743Y038251D01*
X005740Y038308D01*
X050990Y038308D02*
X050993Y038365D01*
X051000Y038422D01*
X051013Y038478D01*
X051031Y038532D01*
X051054Y038585D01*
X051082Y038635D01*
X051114Y038683D01*
X051150Y038727D01*
X051190Y038768D01*
X051234Y038806D01*
X051280Y038839D01*
X051330Y038867D01*
X051382Y038891D01*
X051436Y038911D01*
X051492Y038925D01*
X051548Y038934D01*
X051606Y038938D01*
X051663Y038937D01*
X051720Y038930D01*
X051776Y038918D01*
X051831Y038902D01*
X051884Y038880D01*
X051935Y038854D01*
X051983Y038823D01*
X052029Y038788D01*
X052071Y038748D01*
X052109Y038706D01*
X052143Y038659D01*
X052173Y038610D01*
X052198Y038559D01*
X052218Y038505D01*
X052234Y038450D01*
X052244Y038394D01*
X052249Y038337D01*
X052249Y038279D01*
X052244Y038222D01*
X052234Y038166D01*
X052218Y038111D01*
X052198Y038057D01*
X052173Y038006D01*
X052143Y037957D01*
X052109Y037910D01*
X052071Y037868D01*
X052029Y037828D01*
X051983Y037793D01*
X051935Y037762D01*
X051884Y037736D01*
X051831Y037714D01*
X051776Y037698D01*
X051720Y037686D01*
X051663Y037679D01*
X051606Y037678D01*
X051548Y037682D01*
X051492Y037691D01*
X051436Y037705D01*
X051382Y037725D01*
X051330Y037749D01*
X051280Y037777D01*
X051234Y037810D01*
X051190Y037848D01*
X051150Y037889D01*
X051114Y037933D01*
X051082Y037981D01*
X051054Y038031D01*
X051031Y038084D01*
X051013Y038138D01*
X051000Y038194D01*
X050993Y038251D01*
X050990Y038308D01*
X050990Y002558D02*
X050993Y002615D01*
X051000Y002672D01*
X051013Y002728D01*
X051031Y002782D01*
X051054Y002835D01*
X051082Y002885D01*
X051114Y002933D01*
X051150Y002977D01*
X051190Y003018D01*
X051234Y003056D01*
X051280Y003089D01*
X051330Y003117D01*
X051382Y003141D01*
X051436Y003161D01*
X051492Y003175D01*
X051548Y003184D01*
X051606Y003188D01*
X051663Y003187D01*
X051720Y003180D01*
X051776Y003168D01*
X051831Y003152D01*
X051884Y003130D01*
X051935Y003104D01*
X051983Y003073D01*
X052029Y003038D01*
X052071Y002998D01*
X052109Y002956D01*
X052143Y002909D01*
X052173Y002860D01*
X052198Y002809D01*
X052218Y002755D01*
X052234Y002700D01*
X052244Y002644D01*
X052249Y002587D01*
X052249Y002529D01*
X052244Y002472D01*
X052234Y002416D01*
X052218Y002361D01*
X052198Y002307D01*
X052173Y002256D01*
X052143Y002207D01*
X052109Y002160D01*
X052071Y002118D01*
X052029Y002078D01*
X051983Y002043D01*
X051935Y002012D01*
X051884Y001986D01*
X051831Y001964D01*
X051776Y001948D01*
X051720Y001936D01*
X051663Y001929D01*
X051606Y001928D01*
X051548Y001932D01*
X051492Y001941D01*
X051436Y001955D01*
X051382Y001975D01*
X051330Y001999D01*
X051280Y002027D01*
X051234Y002060D01*
X051190Y002098D01*
X051150Y002139D01*
X051114Y002183D01*
X051082Y002231D01*
X051054Y002281D01*
X051031Y002334D01*
X051013Y002388D01*
X051000Y002444D01*
X050993Y002501D01*
X050990Y002558D01*
M02*
