G75*
G70*
%OFA0B0*%
%FSLAX24Y24*%
%IPPOS*%
%LPD*%
%AMOC8*
5,1,8,0,0,1.08239X$1,22.5*
%
%ADD10C,0.1340*%
%ADD11OC8,0.0680*%
%ADD12R,0.0710X0.0867*%
%ADD13OC8,0.0600*%
%ADD14C,0.1080*%
%ADD15OC8,0.1080*%
%ADD16O,0.1189X0.0634*%
%ADD17C,0.1576*%
%ADD18O,0.1280X0.0680*%
%ADD19C,0.0830*%
%ADD20OC8,0.0830*%
%ADD21R,0.0297X0.0552*%
%ADD22R,0.0867X0.0671*%
%ADD23OC8,0.0930*%
%ADD24R,0.0671X0.0671*%
%ADD25R,0.0867X0.0710*%
%ADD26O,0.1120X0.0600*%
%ADD27R,0.4080X0.4080*%
%ADD28R,0.0400X0.2080*%
%ADD29R,0.1064X0.0848*%
%ADD30O,0.0640X0.1200*%
%ADD31R,0.0848X0.0671*%
%ADD32R,0.0671X0.0848*%
%ADD33R,0.0671X0.0867*%
%ADD34R,0.0880X0.0340*%
%ADD35O,0.1200X0.0640*%
%ADD36R,0.0395X0.0867*%
%ADD37R,0.1025X0.2167*%
%ADD38C,0.0480*%
%ADD39OC8,0.0476*%
%ADD40R,0.0476X0.0476*%
D10*
X006120Y002558D03*
X051620Y002558D03*
X051620Y038308D03*
X006370Y038308D03*
D11*
X008870Y036308D03*
X009870Y036308D03*
X009870Y035308D03*
X008870Y035308D03*
X008870Y034308D03*
X009870Y034308D03*
X009870Y033308D03*
X008870Y033308D03*
X008870Y032308D03*
X009870Y032308D03*
X009870Y031308D03*
X008870Y031308D03*
X008870Y030308D03*
X009870Y030308D03*
X009870Y029308D03*
X008870Y029308D03*
X013870Y029308D03*
X014870Y029308D03*
X014870Y028308D03*
X013870Y028308D03*
X013870Y027308D03*
X014870Y027308D03*
X014870Y030308D03*
X014870Y031308D03*
X014870Y032308D03*
X013870Y032308D03*
X013870Y031308D03*
X013870Y030308D03*
X013870Y033308D03*
X013870Y034308D03*
X014870Y034308D03*
X014870Y033308D03*
X014870Y035308D03*
X014870Y036308D03*
X013870Y036308D03*
X013870Y035308D03*
X019120Y035558D03*
X020120Y035558D03*
X020120Y036558D03*
X019120Y036558D03*
X019120Y034558D03*
X020120Y034558D03*
X020120Y033558D03*
X019120Y033558D03*
X019120Y032558D03*
X020120Y032558D03*
X020120Y031558D03*
X019120Y031558D03*
X019120Y030558D03*
X020120Y030558D03*
X020120Y029558D03*
X019120Y029558D03*
X019120Y028558D03*
X020120Y028558D03*
X020120Y027558D03*
X019120Y027558D03*
X019120Y026558D03*
X020120Y026558D03*
X020120Y025558D03*
X019120Y025558D03*
X019120Y024558D03*
X020120Y024558D03*
X028620Y020808D03*
X029620Y020808D03*
X030620Y020808D03*
X031620Y020808D03*
X032620Y020808D03*
X033620Y020808D03*
X034620Y020808D03*
X035620Y020808D03*
X035620Y019808D03*
X034620Y019808D03*
X033620Y019808D03*
X032620Y019808D03*
X031620Y019808D03*
X030620Y019808D03*
X029620Y019808D03*
X028620Y019808D03*
X030120Y024558D03*
X031120Y024558D03*
X031120Y025558D03*
X031120Y026558D03*
X030120Y026558D03*
X030120Y025558D03*
X030120Y027558D03*
X030120Y028558D03*
X031120Y028558D03*
X031120Y027558D03*
X031120Y029558D03*
X031120Y030558D03*
X030120Y030558D03*
X030120Y029558D03*
X030120Y031558D03*
X030120Y032558D03*
X031120Y032558D03*
X031120Y031558D03*
X031120Y033558D03*
X031120Y034558D03*
X030120Y034558D03*
X030120Y033558D03*
X030120Y035558D03*
X030120Y036558D03*
X031120Y036558D03*
X031120Y035558D03*
X042120Y035058D03*
X043120Y035058D03*
X044120Y035058D03*
X045120Y035058D03*
X046120Y035058D03*
X047120Y035058D03*
X048120Y035058D03*
X049120Y035058D03*
X050120Y035058D03*
X051120Y035058D03*
X051120Y034058D03*
X050120Y034058D03*
X049120Y034058D03*
X048120Y034058D03*
X047120Y034058D03*
X046120Y034058D03*
X045120Y034058D03*
X044120Y034058D03*
X043120Y034058D03*
X042120Y034058D03*
X047370Y027558D03*
X048370Y027558D03*
X049370Y027558D03*
X050370Y027558D03*
X051370Y027558D03*
X051370Y026558D03*
X050370Y026558D03*
X049370Y026558D03*
X048370Y026558D03*
X047370Y026558D03*
X043370Y024308D03*
X042370Y024308D03*
X042370Y023308D03*
X043370Y023308D03*
X043370Y022308D03*
X042370Y022308D03*
X042370Y021308D03*
X043370Y021308D03*
X032620Y005308D03*
X031620Y005308D03*
X030620Y005308D03*
X029620Y005308D03*
X029620Y004308D03*
X030620Y004308D03*
X031620Y004308D03*
X032620Y004308D03*
X021870Y004808D03*
X020870Y004808D03*
X019870Y004808D03*
X018870Y004808D03*
X017870Y004808D03*
X017870Y005808D03*
X018870Y005808D03*
X019870Y005808D03*
X020870Y005808D03*
X021870Y005808D03*
D12*
X011671Y024558D03*
X010569Y024558D03*
X010569Y026058D03*
X011671Y026058D03*
X027319Y028558D03*
X028421Y028558D03*
X028421Y031558D03*
X027319Y031558D03*
X020171Y038058D03*
X019069Y038058D03*
X041569Y031808D03*
X042671Y031808D03*
X043819Y031808D03*
X044921Y031808D03*
X046069Y031808D03*
X047171Y031808D03*
X048319Y031808D03*
X049421Y031808D03*
X050569Y031808D03*
X051671Y031808D03*
X050171Y036808D03*
X049069Y036808D03*
X047671Y036808D03*
X046569Y036808D03*
X045171Y036808D03*
X044069Y036808D03*
D13*
X012120Y020808D03*
X011620Y020058D03*
X011120Y020808D03*
X011620Y012808D03*
X011620Y010808D03*
D14*
X012370Y015808D03*
D15*
X010370Y015808D03*
D16*
X008427Y013396D03*
X007391Y012727D03*
X008427Y012058D03*
X007391Y011388D03*
X008427Y010719D03*
D17*
X001222Y012058D03*
D18*
X007870Y005308D03*
X012870Y005308D03*
X020120Y017558D03*
X025120Y017558D03*
X033590Y032168D03*
X033590Y033948D03*
X036150Y033948D03*
X036150Y032168D03*
D19*
X011870Y006808D03*
D20*
X011870Y008808D03*
D21*
X047746Y015546D03*
X048494Y015546D03*
X048494Y016569D03*
X048120Y016569D03*
X047746Y016569D03*
D22*
X046120Y016148D03*
X046120Y014967D03*
X049930Y015358D03*
X049930Y014177D03*
X049930Y016757D03*
X049930Y017938D03*
X045370Y019467D03*
X045370Y020648D03*
X050870Y005148D03*
X050870Y003967D03*
X022370Y007717D03*
X022370Y008898D03*
D23*
X047620Y002558D03*
D24*
X043620Y017369D03*
X043620Y018747D03*
X041870Y018747D03*
X041870Y017369D03*
X042120Y026369D03*
X042120Y027747D03*
X043620Y027747D03*
X043620Y026369D03*
X015870Y016497D03*
X015870Y015119D03*
X009059Y024558D03*
X007681Y024558D03*
X007681Y026058D03*
X009059Y026058D03*
D25*
X013870Y020859D03*
X013870Y019756D03*
X014620Y016359D03*
X014620Y015256D03*
X014870Y013609D03*
X014870Y012506D03*
X014870Y011109D03*
X014870Y010006D03*
X014870Y008609D03*
X014870Y007506D03*
X024370Y008006D03*
X024370Y009109D03*
X041870Y015256D03*
X041870Y016359D03*
X043620Y016359D03*
X043620Y015256D03*
X043620Y028756D03*
X043620Y029859D03*
X042120Y029859D03*
X042120Y028756D03*
D26*
X037120Y016808D03*
X037120Y015808D03*
X037120Y014808D03*
X037120Y013808D03*
X037120Y012808D03*
X037120Y011808D03*
X037120Y010808D03*
X037120Y009808D03*
X034120Y009808D03*
X034120Y010808D03*
X034120Y011808D03*
X034120Y012808D03*
X034120Y013808D03*
X034120Y014808D03*
X034120Y015808D03*
X034120Y016808D03*
X030370Y016808D03*
X030370Y015808D03*
X030370Y014808D03*
X030370Y013808D03*
X030370Y012808D03*
X030370Y011808D03*
X030370Y010808D03*
X030370Y009808D03*
X027370Y009808D03*
X027370Y010808D03*
X027370Y011808D03*
X027370Y012808D03*
X027370Y013808D03*
X027370Y014808D03*
X027370Y015808D03*
X027370Y016808D03*
D27*
X022370Y014808D03*
D28*
X022370Y011138D03*
X023040Y011138D03*
X023710Y011138D03*
X021700Y011138D03*
X021030Y011138D03*
D29*
X024370Y005908D03*
X024370Y004707D03*
D30*
X025870Y005308D03*
X026870Y005308D03*
X017620Y013058D03*
X016620Y013058D03*
X008870Y007558D03*
X007870Y007558D03*
X006870Y007558D03*
X014620Y005308D03*
X015620Y005308D03*
X008120Y015558D03*
X007120Y015558D03*
X007120Y020558D03*
X008120Y020558D03*
X009120Y020558D03*
X013870Y024058D03*
X014870Y024058D03*
X017870Y019808D03*
X018870Y019808D03*
X033370Y023808D03*
X034370Y023808D03*
X034370Y026558D03*
X033370Y026558D03*
X033370Y030558D03*
X034370Y030558D03*
X034370Y036058D03*
X033370Y036058D03*
X047620Y003808D03*
X048620Y003808D03*
D31*
X035161Y008308D03*
X034078Y008308D03*
X028411Y008308D03*
X027328Y008308D03*
D32*
X051430Y014176D03*
X051430Y015259D03*
X051430Y016806D03*
X051430Y017889D03*
D33*
X051710Y020308D03*
X050529Y020308D03*
X051029Y022058D03*
X052210Y022058D03*
X052210Y023808D03*
X051029Y023808D03*
X048210Y019058D03*
X047029Y019058D03*
X046332Y012308D03*
X046332Y006402D03*
D34*
X046910Y020308D03*
X046910Y020808D03*
X046910Y021308D03*
X046910Y021808D03*
X046910Y022308D03*
X046910Y022808D03*
X046910Y023308D03*
X046910Y023808D03*
X049330Y023808D03*
X049330Y023308D03*
X049330Y022808D03*
X049330Y022308D03*
X049330Y021808D03*
X049330Y021308D03*
X049330Y020808D03*
X049330Y020308D03*
D35*
X018370Y009308D03*
X018370Y008308D03*
D36*
X041608Y006402D03*
X042100Y006402D03*
X042592Y006402D03*
X043084Y006402D03*
X043576Y006402D03*
X044069Y006402D03*
X044561Y006402D03*
X045053Y006402D03*
X045545Y006402D03*
X047120Y006402D03*
X047612Y006402D03*
X048104Y006402D03*
X048596Y006402D03*
X049088Y006402D03*
X049580Y006402D03*
X050073Y006402D03*
X050565Y006402D03*
X051057Y006402D03*
X051057Y012308D03*
X050565Y012308D03*
X050073Y012308D03*
X049580Y012308D03*
X049088Y012308D03*
X048596Y012308D03*
X048104Y012308D03*
X047612Y012308D03*
X047120Y012308D03*
X045545Y012308D03*
X045053Y012308D03*
X044561Y012308D03*
X044069Y012308D03*
X043576Y012308D03*
X043084Y012308D03*
X042592Y012308D03*
X042100Y012308D03*
X041608Y012308D03*
D37*
X040427Y009355D03*
X052238Y009355D03*
D38*
X035120Y019058D03*
X027620Y019558D03*
X023620Y021308D03*
X022620Y020308D03*
X020620Y022308D03*
X019620Y022308D03*
X015120Y026308D03*
X013370Y026808D03*
X012120Y027808D03*
X011620Y028808D03*
X011620Y030308D03*
X011620Y032308D03*
X015370Y030808D03*
X016870Y030558D03*
X018120Y030058D03*
X016870Y028808D03*
X016120Y029308D03*
X016370Y027808D03*
X018370Y027558D03*
X017870Y031558D03*
X017120Y032308D03*
X017870Y032558D03*
X016870Y032808D03*
X017370Y033808D03*
X016120Y033808D03*
X018370Y036558D03*
X018370Y038058D03*
X014870Y038558D03*
X013870Y038058D03*
X013370Y037808D03*
X022620Y032808D03*
X023620Y031308D03*
X025620Y030558D03*
X026620Y029308D03*
X025620Y028558D03*
X025370Y027558D03*
X026620Y027058D03*
X025120Y025808D03*
X028120Y029308D03*
X029120Y037058D03*
X025120Y037308D03*
X024620Y037308D03*
X023870Y037558D03*
D39*
X031120Y038558D03*
X034870Y037808D03*
X037370Y035558D03*
X032120Y032808D03*
X032620Y029308D03*
X032370Y026808D03*
X037120Y022558D03*
X041370Y025058D03*
X040370Y026308D03*
X039870Y029058D03*
X043620Y031308D03*
X048120Y033558D03*
X045870Y026808D03*
X047620Y025058D03*
X046620Y024558D03*
X044620Y022558D03*
X043620Y020558D03*
X043620Y019058D03*
X045370Y019058D03*
X044870Y014808D03*
X045370Y013308D03*
X044370Y013308D03*
X041870Y013808D03*
X036120Y015808D03*
X035370Y016308D03*
X032370Y018058D03*
X028620Y015058D03*
X028620Y014308D03*
X026120Y014058D03*
X025370Y015558D03*
X025620Y018808D03*
X024120Y018808D03*
X024120Y020308D03*
X024120Y021308D03*
X025620Y021308D03*
X025620Y020308D03*
X021870Y019308D03*
X020120Y019558D03*
X020620Y021308D03*
X019120Y021308D03*
X018620Y023308D03*
X016120Y021058D03*
X013870Y021308D03*
X013120Y022558D03*
X011120Y023058D03*
X013870Y026058D03*
X015620Y025308D03*
X017370Y025558D03*
X025620Y024308D03*
X018620Y017308D03*
X018620Y016558D03*
X024120Y010308D03*
X021120Y008808D03*
X020120Y009808D03*
X014620Y007058D03*
X010120Y008308D03*
X028620Y006308D03*
X030120Y008308D03*
X032870Y007558D03*
X037120Y007808D03*
X039120Y006808D03*
X041620Y004808D03*
X042120Y005308D03*
X032370Y012308D03*
X032370Y014308D03*
X043620Y025558D03*
X050020Y025158D03*
X012120Y036308D03*
X012120Y037808D03*
X009370Y037808D03*
X007870Y027308D03*
D40*
X016370Y039058D03*
X035370Y039058D03*
X045120Y010308D03*
X045120Y008308D03*
X047370Y008308D03*
X047370Y010308D03*
X038120Y005308D03*
X005370Y005808D03*
M02*
