G75*
G70*
%OFA0B0*%
%FSLAX24Y24*%
%IPPOS*%
%LPD*%
%AMOC8*
5,1,8,0,0,1.08239X$1,22.5*
%
%ADD10C,0.0050*%
%ADD11C,0.0030*%
%ADD12C,0.0040*%
D10*
X005309Y004285D02*
X005716Y004285D01*
X005512Y004285D02*
X005512Y004895D01*
X005309Y004692D01*
X005916Y004794D02*
X005916Y004386D01*
X006323Y004794D01*
X006323Y004386D01*
X006222Y004285D01*
X006018Y004285D01*
X005916Y004386D01*
X005916Y004794D02*
X006018Y004895D01*
X006222Y004895D01*
X006323Y004794D01*
X006370Y001645D02*
X006370Y001035D01*
X006573Y001035D02*
X006166Y001035D01*
X005966Y001035D02*
X005559Y001035D01*
X005762Y001035D02*
X005762Y001645D01*
X005559Y001442D01*
X006166Y001442D02*
X006370Y001645D01*
X014559Y001544D02*
X014660Y001645D01*
X014864Y001645D01*
X014966Y001544D01*
X014966Y001442D01*
X014559Y001035D01*
X014966Y001035D01*
X015166Y001136D02*
X015573Y001544D01*
X015573Y001136D01*
X015472Y001035D01*
X015268Y001035D01*
X015166Y001136D01*
X015166Y001544D01*
X015268Y001645D01*
X015472Y001645D01*
X015573Y001544D01*
X014966Y004285D02*
X014559Y004285D01*
X014762Y004285D02*
X014762Y004895D01*
X014559Y004692D01*
D11*
X015549Y002645D02*
X015549Y002460D01*
X015672Y002522D01*
X015734Y002522D01*
X015796Y002460D01*
X015796Y002336D01*
X015734Y002275D01*
X015610Y002275D01*
X015549Y002336D01*
X015549Y002645D02*
X015796Y002645D01*
X015917Y002645D02*
X015917Y002398D01*
X016040Y002275D01*
X016164Y002398D01*
X016164Y002645D01*
X016672Y005586D02*
X016672Y005833D01*
X016549Y005710D02*
X016796Y005710D01*
X016922Y015586D02*
X016922Y015833D01*
X016799Y015710D02*
X017046Y015710D01*
X016922Y016086D02*
X016922Y016333D01*
X016799Y016210D02*
X017046Y016210D01*
X015635Y019025D02*
X015450Y019210D01*
X015388Y019148D02*
X015635Y019395D01*
X015388Y019395D02*
X015388Y019025D01*
X015267Y019025D02*
X015267Y019272D01*
X015143Y019395D01*
X015020Y019272D01*
X015020Y019025D01*
X014898Y019025D02*
X014898Y019395D01*
X014775Y019272D01*
X014651Y019395D01*
X014651Y019025D01*
X014530Y019025D02*
X014345Y019210D01*
X014283Y019148D02*
X014530Y019395D01*
X014283Y019395D02*
X014283Y019025D01*
X013793Y019025D02*
X013547Y019025D01*
X013547Y019395D01*
X013425Y019395D02*
X013178Y019395D01*
X013178Y019025D01*
X013425Y019025D01*
X013302Y019210D02*
X013178Y019210D01*
X013057Y019025D02*
X013057Y019395D01*
X012810Y019395D02*
X012810Y019025D01*
X012933Y019148D01*
X013057Y019025D01*
X012688Y019025D02*
X012688Y019272D01*
X012565Y019395D01*
X012442Y019272D01*
X012442Y019025D01*
X012442Y019210D02*
X012688Y019210D01*
X012320Y019210D02*
X012258Y019148D01*
X012073Y019148D01*
X012073Y019025D02*
X012073Y019395D01*
X012258Y019395D01*
X012320Y019333D01*
X012320Y019210D01*
X011584Y019272D02*
X011584Y018963D01*
X011522Y018901D01*
X011460Y018901D01*
X011398Y019025D02*
X011337Y019086D01*
X011337Y019272D01*
X011215Y019210D02*
X011154Y019272D01*
X010968Y019272D01*
X010968Y019395D02*
X010968Y019025D01*
X011154Y019025D01*
X011215Y019086D01*
X011215Y019210D01*
X011398Y019025D02*
X011584Y019025D01*
X010479Y019025D02*
X010293Y019210D01*
X010232Y019148D02*
X010479Y019395D01*
X010232Y019395D02*
X010232Y019025D01*
X010110Y019086D02*
X010049Y019025D01*
X009925Y019025D01*
X009863Y019086D01*
X010110Y019333D01*
X010110Y019086D01*
X010110Y019333D02*
X010049Y019395D01*
X009925Y019395D01*
X009863Y019333D01*
X009863Y019086D01*
X009742Y019086D02*
X009680Y019025D01*
X009557Y019025D01*
X009495Y019086D01*
X009374Y019086D02*
X009374Y019333D01*
X009127Y019086D01*
X009189Y019025D01*
X009312Y019025D01*
X009374Y019086D01*
X009127Y019086D02*
X009127Y019333D01*
X009189Y019395D01*
X009312Y019395D01*
X009374Y019333D01*
X009495Y019333D02*
X009557Y019395D01*
X009680Y019395D01*
X009742Y019333D01*
X009742Y019272D01*
X009680Y019210D01*
X009742Y019148D01*
X009742Y019086D01*
X009680Y019210D02*
X009619Y019210D01*
X009005Y019148D02*
X008944Y019210D01*
X008759Y019210D01*
X008759Y019086D01*
X008820Y019025D01*
X008944Y019025D01*
X009005Y019086D01*
X009005Y019148D01*
X008882Y019333D02*
X008759Y019210D01*
X008637Y019086D02*
X008637Y019333D01*
X008575Y019395D01*
X008452Y019395D01*
X008390Y019333D01*
X008390Y019086D01*
X008452Y019025D01*
X008575Y019025D01*
X008637Y019086D01*
X008882Y019333D02*
X009005Y019395D01*
X008269Y019333D02*
X008269Y019210D01*
X008207Y019148D01*
X008022Y019148D01*
X008022Y019025D02*
X008022Y019395D01*
X008207Y019395D01*
X008269Y019333D01*
X007532Y019395D02*
X007532Y019025D01*
X007285Y019025D02*
X007285Y019395D01*
X007409Y019272D01*
X007532Y019395D01*
X007164Y019272D02*
X007164Y019025D01*
X007164Y019210D02*
X006917Y019210D01*
X006917Y019272D02*
X007040Y019395D01*
X007164Y019272D01*
X006917Y019272D02*
X006917Y019025D01*
X006796Y019086D02*
X006734Y019025D01*
X006610Y019025D01*
X006549Y019086D01*
X006549Y019333D01*
X006610Y019395D01*
X006734Y019395D01*
X006796Y019333D01*
X008422Y016833D02*
X008422Y016586D01*
X008299Y016710D02*
X008546Y016710D01*
X012049Y015710D02*
X012296Y015710D01*
X012172Y015833D02*
X012172Y015586D01*
X014049Y016960D02*
X014296Y016960D01*
X014172Y017083D02*
X014172Y016836D01*
X015020Y019210D02*
X015267Y019210D01*
X008546Y012210D02*
X008299Y012210D01*
X008422Y012333D02*
X008422Y012086D01*
D12*
X004574Y013812D02*
X004487Y013725D01*
X004574Y013812D02*
X004574Y013985D01*
X004487Y014072D01*
X004400Y014072D01*
X004314Y013985D01*
X004314Y013899D01*
X004314Y013985D02*
X004227Y014072D01*
X004140Y014072D01*
X004053Y013985D01*
X004053Y013812D01*
X004140Y013725D01*
X004487Y014241D02*
X004487Y014327D01*
X004574Y014327D01*
X004574Y014241D01*
X004487Y014241D01*
X004487Y014498D02*
X004574Y014585D01*
X004574Y014759D01*
X004487Y014845D01*
X004400Y014845D01*
X004314Y014759D01*
X004314Y014672D01*
X004314Y014759D02*
X004227Y014845D01*
X004140Y014845D01*
X004053Y014759D01*
X004053Y014585D01*
X004140Y014498D01*
X004053Y015014D02*
X004400Y015014D01*
X004574Y015188D01*
X004400Y015361D01*
X004053Y015361D01*
X009499Y017970D02*
X009846Y017970D01*
X010015Y017970D02*
X010015Y018056D01*
X010101Y018056D01*
X010101Y017970D01*
X010015Y017970D01*
X010272Y018056D02*
X010272Y018143D01*
X010359Y018230D01*
X010533Y018230D01*
X010619Y018143D01*
X010619Y018056D01*
X010533Y017970D01*
X010359Y017970D01*
X010272Y018056D01*
X010359Y018230D02*
X010272Y018317D01*
X010272Y018403D01*
X010359Y018490D01*
X010533Y018490D01*
X010619Y018403D01*
X010619Y018317D01*
X010533Y018230D01*
X010788Y018143D02*
X010961Y017970D01*
X011135Y018143D01*
X011135Y018490D01*
X010788Y018490D02*
X010788Y018143D01*
X009672Y017970D02*
X009672Y018490D01*
X009499Y018317D01*
X013890Y012050D02*
X013804Y011963D01*
X013890Y012050D02*
X014064Y012050D01*
X014151Y011963D01*
X014151Y011877D01*
X013804Y011530D01*
X014151Y011530D01*
X014319Y011530D02*
X014406Y011530D01*
X014406Y011616D01*
X014319Y011616D01*
X014319Y011530D01*
X014577Y011616D02*
X014577Y011703D01*
X014664Y011790D01*
X014837Y011790D01*
X014924Y011703D01*
X014924Y011616D01*
X014837Y011530D01*
X014664Y011530D01*
X014577Y011616D01*
X014664Y011790D02*
X014577Y011877D01*
X014577Y011963D01*
X014664Y012050D01*
X014837Y012050D01*
X014924Y011963D01*
X014924Y011877D01*
X014837Y011790D01*
X015093Y011703D02*
X015266Y011530D01*
X015440Y011703D01*
X015440Y012050D01*
X015093Y012050D02*
X015093Y011703D01*
M02*
