G75*
G70*
%OFA0B0*%
%FSLAX24Y24*%
%IPPOS*%
%LPD*%
%AMOC8*
5,1,8,0,0,1.08239X$1,22.5*
%
%ADD10C,0.0000*%
%ADD11R,0.0091X0.0630*%
%ADD12OC8,0.0600*%
%ADD13R,0.0217X0.0472*%
%ADD14R,0.0787X0.0591*%
%ADD15R,0.0591X0.0768*%
%ADD16R,0.0472X0.0217*%
%ADD17R,0.0591X0.0787*%
%ADD18R,0.0768X0.0591*%
%ADD19R,0.0591X0.0591*%
%ADD20R,0.0787X0.0630*%
%ADD21C,0.0160*%
%ADD22C,0.0090*%
%ADD23OC8,0.0396*%
D10*
X003849Y000762D02*
X003849Y019758D01*
X017719Y019758D01*
X017719Y000762D01*
X003849Y000762D01*
X004154Y001760D02*
X004157Y001817D01*
X004164Y001874D01*
X004177Y001930D01*
X004195Y001984D01*
X004218Y002037D01*
X004246Y002087D01*
X004278Y002135D01*
X004314Y002179D01*
X004354Y002220D01*
X004398Y002258D01*
X004444Y002291D01*
X004494Y002319D01*
X004546Y002343D01*
X004600Y002363D01*
X004656Y002377D01*
X004712Y002386D01*
X004770Y002390D01*
X004827Y002389D01*
X004884Y002382D01*
X004940Y002370D01*
X004995Y002354D01*
X005048Y002332D01*
X005099Y002306D01*
X005147Y002275D01*
X005193Y002240D01*
X005235Y002200D01*
X005273Y002158D01*
X005307Y002111D01*
X005337Y002062D01*
X005362Y002011D01*
X005382Y001957D01*
X005398Y001902D01*
X005408Y001846D01*
X005413Y001789D01*
X005413Y001731D01*
X005408Y001674D01*
X005398Y001618D01*
X005382Y001563D01*
X005362Y001509D01*
X005337Y001458D01*
X005307Y001409D01*
X005273Y001362D01*
X005235Y001320D01*
X005193Y001280D01*
X005147Y001245D01*
X005099Y001214D01*
X005048Y001188D01*
X004995Y001166D01*
X004940Y001150D01*
X004884Y001138D01*
X004827Y001131D01*
X004770Y001130D01*
X004712Y001134D01*
X004656Y001143D01*
X004600Y001157D01*
X004546Y001177D01*
X004494Y001201D01*
X004444Y001229D01*
X004398Y001262D01*
X004354Y001300D01*
X004314Y001341D01*
X004278Y001385D01*
X004246Y001433D01*
X004218Y001483D01*
X004195Y001536D01*
X004177Y001590D01*
X004164Y001646D01*
X004157Y001703D01*
X004154Y001760D01*
X008841Y014238D02*
X008848Y014381D01*
X008867Y014523D01*
X008899Y014663D01*
X008944Y014799D01*
X009001Y014931D01*
X009070Y015056D01*
X009150Y015175D01*
X009241Y015287D01*
X009341Y015389D01*
X009450Y015482D01*
X009567Y015565D01*
X009691Y015636D01*
X009822Y015697D01*
X009957Y015745D01*
X010096Y015780D01*
X010237Y015803D01*
X010380Y015813D01*
X010523Y015809D01*
X010666Y015793D01*
X010806Y015764D01*
X010943Y015722D01*
X011076Y015668D01*
X011203Y015602D01*
X011324Y015525D01*
X011438Y015437D01*
X011542Y015339D01*
X011638Y015232D01*
X011723Y015117D01*
X011798Y014994D01*
X011861Y014865D01*
X011912Y014732D01*
X011950Y014593D01*
X011976Y014452D01*
X011989Y014310D01*
X011989Y014166D01*
X011976Y014024D01*
X011950Y013883D01*
X011912Y013744D01*
X011861Y013611D01*
X011798Y013482D01*
X011723Y013359D01*
X011638Y013244D01*
X011542Y013137D01*
X011438Y013039D01*
X011324Y012951D01*
X011204Y012874D01*
X011076Y012808D01*
X010943Y012754D01*
X010806Y012712D01*
X010666Y012683D01*
X010523Y012667D01*
X010380Y012663D01*
X010237Y012673D01*
X010096Y012696D01*
X009957Y012731D01*
X009822Y012779D01*
X009691Y012840D01*
X009567Y012911D01*
X009450Y012994D01*
X009341Y013087D01*
X009241Y013189D01*
X009150Y013301D01*
X009070Y013420D01*
X009001Y013545D01*
X008944Y013677D01*
X008899Y013813D01*
X008867Y013953D01*
X008848Y014095D01*
X008841Y014238D01*
X004154Y018760D02*
X004157Y018817D01*
X004164Y018874D01*
X004177Y018930D01*
X004195Y018984D01*
X004218Y019037D01*
X004246Y019087D01*
X004278Y019135D01*
X004314Y019179D01*
X004354Y019220D01*
X004398Y019258D01*
X004444Y019291D01*
X004494Y019319D01*
X004546Y019343D01*
X004600Y019363D01*
X004656Y019377D01*
X004712Y019386D01*
X004770Y019390D01*
X004827Y019389D01*
X004884Y019382D01*
X004940Y019370D01*
X004995Y019354D01*
X005048Y019332D01*
X005099Y019306D01*
X005147Y019275D01*
X005193Y019240D01*
X005235Y019200D01*
X005273Y019158D01*
X005307Y019111D01*
X005337Y019062D01*
X005362Y019011D01*
X005382Y018957D01*
X005398Y018902D01*
X005408Y018846D01*
X005413Y018789D01*
X005413Y018731D01*
X005408Y018674D01*
X005398Y018618D01*
X005382Y018563D01*
X005362Y018509D01*
X005337Y018458D01*
X005307Y018409D01*
X005273Y018362D01*
X005235Y018320D01*
X005193Y018280D01*
X005147Y018245D01*
X005099Y018214D01*
X005048Y018188D01*
X004995Y018166D01*
X004940Y018150D01*
X004884Y018138D01*
X004827Y018131D01*
X004770Y018130D01*
X004712Y018134D01*
X004656Y018143D01*
X004600Y018157D01*
X004546Y018177D01*
X004494Y018201D01*
X004444Y018229D01*
X004398Y018262D01*
X004354Y018300D01*
X004314Y018341D01*
X004278Y018385D01*
X004246Y018433D01*
X004218Y018483D01*
X004195Y018536D01*
X004177Y018590D01*
X004164Y018646D01*
X004157Y018703D01*
X004154Y018760D01*
X016154Y018760D02*
X016157Y018817D01*
X016164Y018874D01*
X016177Y018930D01*
X016195Y018984D01*
X016218Y019037D01*
X016246Y019087D01*
X016278Y019135D01*
X016314Y019179D01*
X016354Y019220D01*
X016398Y019258D01*
X016444Y019291D01*
X016494Y019319D01*
X016546Y019343D01*
X016600Y019363D01*
X016656Y019377D01*
X016712Y019386D01*
X016770Y019390D01*
X016827Y019389D01*
X016884Y019382D01*
X016940Y019370D01*
X016995Y019354D01*
X017048Y019332D01*
X017099Y019306D01*
X017147Y019275D01*
X017193Y019240D01*
X017235Y019200D01*
X017273Y019158D01*
X017307Y019111D01*
X017337Y019062D01*
X017362Y019011D01*
X017382Y018957D01*
X017398Y018902D01*
X017408Y018846D01*
X017413Y018789D01*
X017413Y018731D01*
X017408Y018674D01*
X017398Y018618D01*
X017382Y018563D01*
X017362Y018509D01*
X017337Y018458D01*
X017307Y018409D01*
X017273Y018362D01*
X017235Y018320D01*
X017193Y018280D01*
X017147Y018245D01*
X017099Y018214D01*
X017048Y018188D01*
X016995Y018166D01*
X016940Y018150D01*
X016884Y018138D01*
X016827Y018131D01*
X016770Y018130D01*
X016712Y018134D01*
X016656Y018143D01*
X016600Y018157D01*
X016546Y018177D01*
X016494Y018201D01*
X016444Y018229D01*
X016398Y018262D01*
X016354Y018300D01*
X016314Y018341D01*
X016278Y018385D01*
X016246Y018433D01*
X016218Y018483D01*
X016195Y018536D01*
X016177Y018590D01*
X016164Y018646D01*
X016157Y018703D01*
X016154Y018760D01*
X016154Y001760D02*
X016157Y001817D01*
X016164Y001874D01*
X016177Y001930D01*
X016195Y001984D01*
X016218Y002037D01*
X016246Y002087D01*
X016278Y002135D01*
X016314Y002179D01*
X016354Y002220D01*
X016398Y002258D01*
X016444Y002291D01*
X016494Y002319D01*
X016546Y002343D01*
X016600Y002363D01*
X016656Y002377D01*
X016712Y002386D01*
X016770Y002390D01*
X016827Y002389D01*
X016884Y002382D01*
X016940Y002370D01*
X016995Y002354D01*
X017048Y002332D01*
X017099Y002306D01*
X017147Y002275D01*
X017193Y002240D01*
X017235Y002200D01*
X017273Y002158D01*
X017307Y002111D01*
X017337Y002062D01*
X017362Y002011D01*
X017382Y001957D01*
X017398Y001902D01*
X017408Y001846D01*
X017413Y001789D01*
X017413Y001731D01*
X017408Y001674D01*
X017398Y001618D01*
X017382Y001563D01*
X017362Y001509D01*
X017337Y001458D01*
X017307Y001409D01*
X017273Y001362D01*
X017235Y001320D01*
X017193Y001280D01*
X017147Y001245D01*
X017099Y001214D01*
X017048Y001188D01*
X016995Y001166D01*
X016940Y001150D01*
X016884Y001138D01*
X016827Y001131D01*
X016770Y001130D01*
X016712Y001134D01*
X016656Y001143D01*
X016600Y001157D01*
X016546Y001177D01*
X016494Y001201D01*
X016444Y001229D01*
X016398Y001262D01*
X016354Y001300D01*
X016314Y001341D01*
X016278Y001385D01*
X016246Y001433D01*
X016218Y001483D01*
X016195Y001536D01*
X016177Y001590D01*
X016164Y001646D01*
X016157Y001703D01*
X016154Y001760D01*
D11*
X011266Y007435D03*
X011109Y007435D03*
X010951Y007435D03*
X010794Y007435D03*
X010636Y007435D03*
X010479Y007435D03*
X010321Y007435D03*
X010164Y007435D03*
X010006Y007435D03*
X009849Y007435D03*
X009691Y007435D03*
X009534Y007435D03*
X009534Y009325D03*
X009691Y009325D03*
X009849Y009325D03*
X010006Y009325D03*
X010164Y009325D03*
X010321Y009325D03*
X010479Y009325D03*
X010636Y009325D03*
X010794Y009325D03*
X010951Y009325D03*
X011109Y009325D03*
X011266Y009325D03*
D12*
X010784Y003510D03*
X010784Y002510D03*
X009784Y002510D03*
X009784Y003510D03*
X008784Y003510D03*
X008784Y002510D03*
X007784Y002510D03*
X007784Y003510D03*
X006784Y003510D03*
X006784Y002510D03*
X005784Y002510D03*
X005784Y003510D03*
X011784Y003510D03*
X011784Y002510D03*
X012784Y002510D03*
X012784Y003510D03*
X013784Y003510D03*
X013784Y002510D03*
X014784Y002510D03*
X014784Y003510D03*
D13*
X005658Y013998D03*
X004910Y013998D03*
X004910Y015022D03*
X005284Y015022D03*
X005658Y015022D03*
D14*
X007034Y015169D03*
X007034Y016350D03*
X007034Y013850D03*
X007034Y012669D03*
X005034Y012100D03*
X005034Y010919D03*
X012784Y017169D03*
X012784Y018350D03*
X015284Y018350D03*
X015284Y017169D03*
X016284Y012100D03*
X016284Y010919D03*
X013034Y008850D03*
X013034Y007669D03*
D15*
X008034Y012718D03*
X008034Y013801D03*
X008034Y015218D03*
X008034Y016301D03*
X013784Y017218D03*
X013784Y018301D03*
X016534Y017551D03*
X016534Y016468D03*
D16*
X015046Y013134D03*
X015046Y012386D03*
X014022Y012386D03*
X014022Y012760D03*
X014022Y013134D03*
X011046Y016886D03*
X011046Y017260D03*
X011046Y017634D03*
X010022Y017634D03*
X010022Y016886D03*
D17*
X008624Y017760D03*
X007443Y017760D03*
X012693Y014510D03*
X013874Y014510D03*
X015193Y014510D03*
X016374Y014510D03*
X007874Y008760D03*
X006693Y008760D03*
X006693Y007260D03*
X007874Y007260D03*
D18*
X012742Y015510D03*
X013825Y015510D03*
X015242Y015510D03*
X016325Y015510D03*
D19*
X016284Y007449D03*
X016284Y006071D03*
D20*
X016284Y005061D03*
X016284Y003959D03*
D21*
X016284Y003760D01*
X016034Y004010D01*
X015534Y004010D01*
X015284Y004260D01*
X015284Y010510D01*
X013784Y012010D01*
X013784Y012386D01*
X014022Y012386D01*
X013784Y012386D02*
X012534Y012386D01*
X012534Y012760D01*
X012534Y014510D01*
X012534Y015510D01*
X012534Y016260D01*
X014534Y016260D01*
X015284Y017010D01*
X015284Y017169D01*
X015284Y017260D01*
X016075Y016468D01*
X016534Y016468D01*
X016534Y017551D02*
X015825Y018260D01*
X015284Y018260D01*
X015284Y018350D01*
X015242Y018301D02*
X015284Y018260D01*
X015242Y018301D02*
X013784Y018301D01*
X013784Y018260D01*
X013693Y018350D01*
X012784Y018350D01*
X012784Y018260D01*
X012034Y018260D01*
X011784Y018260D01*
X011784Y017260D01*
X011046Y017260D01*
X011046Y017634D02*
X010658Y017634D01*
X010636Y017632D01*
X010616Y017627D01*
X010596Y017617D01*
X010578Y017605D01*
X010563Y017590D01*
X010551Y017572D01*
X010541Y017552D01*
X010536Y017532D01*
X010534Y017510D01*
X010534Y017010D01*
X010534Y018510D01*
X010284Y018760D01*
X006784Y018760D01*
X005784Y017760D01*
X005784Y016350D01*
X007034Y016350D01*
X007034Y016301D01*
X007034Y016260D01*
X007034Y016301D02*
X008034Y016301D01*
X008034Y015218D02*
X008034Y014510D01*
X007034Y014510D01*
X007034Y013850D01*
X007034Y013760D01*
X007034Y014510D02*
X006534Y014510D01*
X005284Y014510D01*
X005284Y015022D01*
X005658Y015022D02*
X005664Y015022D01*
X005664Y016340D01*
X005664Y016350D01*
X005664Y016340D01*
X005664Y016350D02*
X004904Y016350D01*
X004904Y015022D01*
X004910Y015022D01*
X005664Y015022D02*
X005664Y015020D01*
X005664Y013998D02*
X005664Y013410D01*
X006564Y012510D01*
X006564Y012290D01*
X006284Y012010D01*
X006284Y010760D01*
X005784Y010260D01*
X005034Y010510D02*
X004784Y010260D01*
X004784Y007760D01*
X005534Y007010D01*
X005534Y006260D01*
X005034Y010510D02*
X005034Y010919D01*
X005034Y012010D02*
X004910Y012010D01*
X004910Y013998D01*
X005658Y013998D02*
X005664Y013998D01*
X006564Y012510D02*
X007284Y012510D01*
X007284Y012669D01*
X008054Y012669D01*
X008054Y012660D01*
X008054Y012669D02*
X008054Y012718D01*
X008034Y012718D01*
X007284Y012669D02*
X007034Y012669D01*
X007124Y012669D01*
X007124Y012640D01*
X008034Y013760D02*
X008034Y013801D01*
X008034Y014510D01*
X007034Y014510D02*
X007034Y015169D01*
X005784Y016350D02*
X005664Y016350D01*
X006784Y017760D02*
X007443Y017760D01*
X008534Y017760D02*
X008534Y017634D01*
X010022Y017634D01*
X010022Y016886D02*
X009534Y016886D01*
X009534Y016510D01*
X008624Y017760D02*
X008534Y017760D01*
X010534Y017010D02*
X010536Y016988D01*
X010541Y016968D01*
X010551Y016948D01*
X010563Y016930D01*
X010578Y016915D01*
X010596Y016903D01*
X010616Y016893D01*
X010636Y016888D01*
X010658Y016886D01*
X011046Y016886D01*
X011784Y016886D01*
X011784Y016510D01*
X012034Y016260D01*
X012534Y016260D01*
X012784Y017010D02*
X012784Y017260D01*
X012784Y017169D02*
X013284Y017169D01*
X013284Y017010D01*
X013284Y017169D02*
X013784Y017169D01*
X013784Y017010D01*
X013784Y017169D02*
X013784Y017218D01*
X013784Y017260D01*
X013784Y017218D02*
X013742Y017218D01*
X012874Y017169D02*
X012784Y017169D01*
X012742Y015510D02*
X012784Y015510D01*
X012742Y015510D02*
X012534Y015510D01*
X012534Y014510D02*
X012693Y014510D01*
X013784Y014510D02*
X013874Y014510D01*
X014534Y014510D01*
X015193Y014510D01*
X014534Y014510D02*
X014534Y015510D01*
X015242Y015510D01*
X014534Y015510D02*
X013825Y015510D01*
X014534Y014510D02*
X014534Y012760D01*
X014534Y011760D01*
X015034Y011260D01*
X015534Y010760D01*
X016284Y010760D01*
X016284Y010260D01*
X016284Y010760D02*
X016534Y010760D01*
X016284Y010919D01*
X016534Y012010D02*
X016284Y012100D01*
X016534Y012386D01*
X015046Y012386D01*
X014534Y012760D02*
X014022Y012760D01*
X014022Y013134D02*
X012534Y013134D01*
X012534Y012760D01*
X013784Y009760D02*
X014034Y009510D01*
X014784Y010260D01*
X014034Y009510D02*
X014034Y006760D01*
X014784Y006010D01*
X014784Y003510D01*
X015534Y003010D02*
X015534Y004010D01*
X015534Y003010D02*
X015034Y002510D01*
X014784Y002510D01*
X016284Y005061D02*
X016284Y006071D01*
X016284Y007449D02*
X016284Y008260D01*
X016534Y013134D02*
X015046Y013134D01*
X016374Y014510D02*
X016534Y014510D01*
X016534Y015510D01*
X016325Y015510D01*
X016284Y015510D01*
X016534Y014510D02*
X016534Y013510D01*
X016534Y013134D01*
X005034Y012100D02*
X005034Y012010D01*
D22*
X005784Y010260D02*
X005284Y009760D01*
X005284Y008010D01*
X006034Y007260D01*
X006693Y007260D01*
X006784Y007260D01*
X007784Y007260D02*
X007874Y007350D01*
X007874Y008760D01*
X008284Y008760D01*
X008534Y008760D01*
X009534Y009760D01*
X009534Y009325D01*
X009691Y009325D02*
X009691Y009852D01*
X009534Y010010D01*
X006284Y010010D01*
X005784Y009510D01*
X005784Y010260D02*
X009534Y010260D01*
X009849Y009945D01*
X009849Y009325D01*
X010006Y009325D02*
X010006Y010037D01*
X009534Y010510D01*
X007284Y010510D01*
X006784Y011010D01*
X007534Y011260D02*
X008034Y010760D01*
X009534Y010760D01*
X010164Y010130D01*
X010164Y009325D01*
X010321Y009325D02*
X010321Y010222D01*
X009534Y011010D01*
X008784Y011010D01*
X008284Y011510D01*
X008284Y009760D02*
X006534Y009760D01*
X006534Y008760D01*
X006693Y008760D01*
X007784Y008760D02*
X007874Y008760D01*
X008534Y009510D02*
X008284Y009760D01*
X010034Y011260D02*
X010479Y010815D01*
X010479Y009325D01*
X010636Y009325D02*
X010636Y010862D01*
X011284Y011510D01*
X012284Y011510D01*
X011784Y011260D02*
X012284Y010760D01*
X012784Y010760D01*
X013284Y011260D01*
X014034Y011010D02*
X013034Y010010D01*
X011284Y010010D01*
X011109Y009835D01*
X011109Y009325D01*
X011266Y009325D02*
X011266Y009742D01*
X011284Y009760D01*
X013034Y009760D01*
X013034Y008850D01*
X013034Y008760D01*
X013034Y007669D02*
X013034Y007260D01*
X012784Y006510D02*
X012034Y006510D01*
X011266Y007277D01*
X011266Y007435D01*
X011109Y007435D02*
X011109Y006935D01*
X012034Y006010D01*
X014034Y006010D01*
X014284Y005760D01*
X014284Y003010D01*
X013784Y002510D01*
X013284Y003010D02*
X012784Y002510D01*
X012284Y003010D02*
X011784Y002510D01*
X012284Y003010D02*
X012284Y004760D01*
X010794Y006250D01*
X010794Y007435D01*
X010951Y007435D02*
X010951Y006592D01*
X012034Y005510D01*
X013034Y005510D01*
X013284Y005260D01*
X013284Y003010D01*
X011284Y003010D02*
X010784Y002510D01*
X010284Y003010D02*
X009784Y002510D01*
X010284Y003010D02*
X010284Y005260D01*
X010479Y005455D01*
X010479Y007435D01*
X010636Y007435D02*
X010636Y005907D01*
X011284Y005260D01*
X011284Y003010D01*
X009284Y003010D02*
X008784Y002510D01*
X009284Y003010D02*
X009284Y004760D01*
X010321Y005797D01*
X010321Y007435D01*
X010164Y007435D02*
X010164Y006140D01*
X008284Y004260D01*
X008284Y003010D01*
X007784Y002510D01*
X007284Y003010D02*
X006784Y002510D01*
X007284Y003010D02*
X007284Y004510D01*
X007534Y004760D01*
X008284Y004760D01*
X010006Y006482D01*
X010006Y007435D01*
X009691Y007435D02*
X009691Y006667D01*
X008284Y005260D01*
X006534Y005260D01*
X006284Y005010D01*
X006284Y003010D01*
X005784Y002510D01*
X005784Y003510D02*
X005784Y005510D01*
X006034Y005760D01*
X008284Y005760D01*
X009534Y007010D01*
X009534Y007435D01*
X007874Y007260D02*
X007874Y006350D01*
X007784Y006260D01*
X005534Y006260D01*
X007784Y007260D02*
X007874Y007260D01*
X010794Y009325D02*
X010794Y010770D01*
X011284Y011260D01*
X011784Y011260D01*
X011284Y010510D02*
X010951Y010177D01*
X010951Y009325D01*
X013034Y009760D02*
X013784Y009760D01*
D23*
X014034Y011010D03*
X013284Y011260D03*
X012284Y011510D03*
X011284Y010510D03*
X010034Y011260D03*
X008534Y009510D03*
X008284Y008760D03*
X006784Y011010D03*
X007534Y011260D03*
X008284Y011510D03*
X005784Y009510D03*
X005034Y010510D03*
X006534Y014510D03*
X006784Y017760D03*
X009534Y016510D03*
X012034Y018260D03*
X013284Y017010D03*
X016534Y013510D03*
X016284Y010260D03*
X014784Y010260D03*
X016284Y008260D03*
X013034Y007260D03*
X012784Y006510D03*
X005534Y006260D03*
M02*
